<svg width="287" height="51" viewBox="0 0 287 51" fill="none" xmlns="http://www.w3.org/2000/svg">
<path d="M0.103422 40V5.224H26.7254C32.5214 5.224 36.8414 5.962 39.6854 7.438C42.5294 8.914 43.9514 11.272 43.9514 14.512C43.9514 16.564 43.3574 18.166 42.1694 19.318C40.9814 20.47 39.2894 21.298 37.0934 21.802C34.8974 22.27 32.2874 22.576 29.2634 22.72L29.5874 22.288C31.7834 22.324 33.8354 22.432 35.7434 22.612C37.6874 22.792 39.3794 23.152 40.8194 23.692C42.2594 24.232 43.3754 25.024 44.1674 26.068C44.9954 27.112 45.4094 28.498 45.4094 30.226C45.4094 32.422 44.7254 34.24 43.3574 35.68C42.0254 37.084 40.1354 38.146 37.6874 38.866C35.2394 39.586 32.3594 39.964 29.0474 40H0.103422ZM10.2554 32.062H28.6694C30.7574 32.062 32.3234 31.792 33.3674 31.252C34.4114 30.676 34.9334 29.776 34.9334 28.552C34.9334 27.652 34.6454 26.986 34.0694 26.554C33.5294 26.122 32.7554 25.834 31.7474 25.69C30.7394 25.546 29.5874 25.474 28.2914 25.474H10.2554V32.062ZM10.2554 19.966H26.8334C28.9214 19.966 30.4874 19.714 31.5314 19.21C32.5754 18.67 33.0974 17.788 33.0974 16.564C33.0974 15.304 32.5754 14.422 31.5314 13.918C30.4874 13.414 28.9754 13.162 26.9954 13.162H10.2554V19.966ZM70.4232 40.702C65.9232 40.702 62.0892 40.198 58.9212 39.19C55.7892 38.182 53.3952 36.652 51.7392 34.6C50.1192 32.548 49.3092 29.92 49.3092 26.716C49.3092 23.548 50.1192 20.92 51.7392 18.832C53.3952 16.744 55.7892 15.196 58.9212 14.188C62.0892 13.144 65.9232 12.622 70.4232 12.622C74.8872 12.622 78.6672 13.144 81.7632 14.188C84.8952 15.196 87.2712 16.744 88.8912 18.832C90.5472 20.92 91.3752 23.548 91.3752 26.716C91.3752 29.92 90.5472 32.548 88.8912 34.6C87.2712 36.652 84.8952 38.182 81.7632 39.19C78.6672 40.198 74.8872 40.702 70.4232 40.702ZM70.4232 34.168C72.6552 34.168 74.5812 33.898 76.2012 33.358C77.8572 32.782 79.1352 31.936 80.0352 30.82C80.9352 29.704 81.3852 28.336 81.3852 26.716C81.3852 25.132 80.9352 23.764 80.0352 22.612C79.1712 21.46 77.9112 20.596 76.2552 20.02C74.6352 19.444 72.6912 19.156 70.4232 19.156C68.1552 19.156 66.1932 19.444 64.5372 20.02C62.8812 20.596 61.5852 21.46 60.6492 22.612C59.7492 23.728 59.2992 25.096 59.2992 26.716C59.2992 28.336 59.7492 29.704 60.6492 30.82C61.5492 31.936 62.8272 32.782 64.4832 33.358C66.1392 33.898 68.1192 34.168 70.4232 34.168ZM96.1589 13.324H105.987V40H96.1589V13.324ZM121.701 12.622C123.573 12.622 125.337 12.856 126.993 13.324C128.685 13.756 130.179 14.476 131.475 15.484C132.771 16.456 133.779 17.752 134.499 19.372C135.255 20.956 135.633 22.918 135.633 25.258V40H125.859V26.716C125.859 24.232 125.229 22.45 123.969 21.37C122.745 20.254 120.603 19.696 117.543 19.696C115.635 19.696 113.853 20.002 112.197 20.614C110.541 21.19 109.119 21.91 107.931 22.774C106.779 23.638 105.969 24.52 105.501 25.42L105.447 22.99C105.591 22.018 106.023 20.938 106.743 19.75C107.499 18.562 108.543 17.428 109.875 16.348C111.243 15.268 112.899 14.386 114.843 13.702C116.823 12.982 119.109 12.622 121.701 12.622ZM142.001 13.324H151.83V50.8H142.001V13.324ZM152.262 0.579999V7.654H141.516V0.579999H152.262ZM178.423 40.702C173.923 40.702 170.089 40.198 166.921 39.19C163.789 38.182 161.395 36.652 159.739 34.6C158.119 32.548 157.309 29.92 157.309 26.716C157.309 23.548 158.119 20.92 159.739 18.832C161.395 16.744 163.789 15.196 166.921 14.188C170.089 13.144 173.923 12.622 178.423 12.622C182.887 12.622 186.667 13.144 189.763 14.188C192.895 15.196 195.271 16.744 196.891 18.832C198.547 20.92 199.375 23.548 199.375 26.716C199.375 29.92 198.547 32.548 196.891 34.6C195.271 36.652 192.895 38.182 189.763 39.19C186.667 40.198 182.887 40.702 178.423 40.702ZM178.423 34.168C180.655 34.168 182.581 33.898 184.201 33.358C185.857 32.782 187.135 31.936 188.035 30.82C188.935 29.704 189.385 28.336 189.385 26.716C189.385 25.132 188.935 23.764 188.035 22.612C187.171 21.46 185.911 20.596 184.255 20.02C182.635 19.444 180.691 19.156 178.423 19.156C176.155 19.156 174.193 19.444 172.537 20.02C170.881 20.596 169.585 21.46 168.649 22.612C167.749 23.728 167.299 25.096 167.299 26.716C167.299 28.336 167.749 29.704 168.649 30.82C169.549 31.936 170.827 32.782 172.483 33.358C174.139 33.898 176.119 34.168 178.423 34.168ZM243.633 40H233.859V13.324H243.633V40ZM234.291 26.716L234.399 28.93C234.291 29.542 234.021 30.352 233.589 31.36C233.157 32.332 232.527 33.358 231.699 34.438C230.907 35.518 229.899 36.544 228.675 37.516C227.487 38.452 226.065 39.226 224.409 39.838C222.789 40.414 220.935 40.702 218.847 40.702C216.939 40.702 215.103 40.486 213.339 40.054C211.611 39.658 210.045 38.974 208.641 38.002C207.273 37.03 206.175 35.716 205.347 34.06C204.555 32.404 204.159 30.334 204.159 27.85V13.324H213.987V26.554C213.987 28.426 214.275 29.884 214.851 30.928C215.463 31.936 216.399 32.656 217.659 33.088C218.919 33.484 220.467 33.682 222.303 33.682C224.355 33.682 226.173 33.304 227.757 32.548C229.341 31.792 230.691 30.892 231.807 29.848C232.959 28.768 233.787 27.724 234.291 26.716ZM249.3 13.324H259.128V40H249.3V13.324ZM271.116 21.1C268.956 21.1 267.03 21.406 265.338 22.018C263.646 22.63 262.224 23.368 261.072 24.232C259.956 25.096 259.146 25.942 258.642 26.77L258.588 24.016C258.66 23.404 258.858 22.648 259.182 21.748C259.542 20.812 260.046 19.822 260.693 18.778C261.342 17.734 262.152 16.744 263.124 15.808C264.096 14.872 265.248 14.116 266.58 13.54C267.912 12.928 269.424 12.622 271.116 12.622V21.1ZM276.438 3.496H286.59V29.038H276.438V3.496ZM286.914 32.926V40H276.168V32.926H286.914Z" fill="url(#paint0_linear_6465_5867)"/>
<defs>
<linearGradient id="paint0_linear_6465_5867" x1="11.0984" y1="13.8367" x2="201.276" y2="138.154" gradientUnits="userSpaceOnUse">
<stop stop-color="#C43CAB"/>
<stop offset="1" stop-color="#F87E4B"/>
</linearGradient>
</defs>
</svg>
