<svg width="252" height="252" viewBox="0 0 252 252" fill="none" xmlns="http://www.w3.org/2000/svg">
<circle cx="126" cy="126" r="102" fill="url(#paint0_linear_7387_5818)"/>
<circle cx="126" cy="126" r="126" fill="url(#paint1_linear_7387_5818)" fill-opacity="0.3"/>
<path d="M126 153.9C126 149.58 128.25 145.53 131.4 142.83V141.75C131.4 130.77 141.3 121.5 153 121.5C160.425 121.5 167.085 125.235 171 130.77V99C171 96.6131 170.052 94.3239 168.364 92.636C166.676 90.9482 164.387 90 162 90H90C85.005 90 81 94.005 81 99V153C81 155.387 81.9482 157.676 83.636 159.364C85.3239 161.052 87.6131 162 90 162H126V153.9ZM90 99L126 121.5L162 99V108L126 130.5L90 108V99ZM165.6 148.5V141.75C165.6 135.45 159.3 130.5 153 130.5C146.7 130.5 140.4 135.45 140.4 141.75V148.5C137.7 148.5 135 151.2 135 153.9V169.65C135 172.8 137.7 175.5 140.4 175.5H165.15C168.3 175.5 171 172.8 171 170.1V154.35C171 151.2 168.3 148.5 165.6 148.5ZM159.75 148.5H146.25V141.75C146.25 138.15 149.4 135.9 153 135.9C156.6 135.9 159.75 138.15 159.75 141.75V148.5Z" fill="white"/>
<defs>
<linearGradient id="paint0_linear_7387_5818" x1="228" y1="210.246" x2="24" y2="77.2622" gradientUnits="userSpaceOnUse">
<stop stop-color="#F77D50"/>
<stop offset="1" stop-color="#CE499B"/>
</linearGradient>
<linearGradient id="paint1_linear_7387_5818" x1="252" y1="230.069" x2="-6.91055e-06" y2="65.7945" gradientUnits="userSpaceOnUse">
<stop stop-color="#F77D50"/>
<stop offset="1" stop-color="#CE499B"/>
</linearGradient>
</defs>
</svg>
