<svg width="408" height="39" viewBox="0 0 408 39" fill="none" xmlns="http://www.w3.org/2000/svg">
<path d="M40.4993 6.444V13.696H10.1193V20.213H34.9623V26.828H10.1193V38H0.90725V6.444H40.4993ZM69.7124 29.67H78.3854C78.1241 31.434 77.3238 33.002 75.9844 34.374C74.6451 35.7133 72.7504 36.7587 70.3004 37.51C67.8504 38.2613 64.7961 38.637 61.1374 38.637C57.1848 38.637 53.7221 38.196 50.7494 37.314C47.8094 36.432 45.5391 35.0437 43.9384 33.149C42.3378 31.2543 41.5374 28.8533 41.5374 25.946C41.5374 23.0713 42.3214 20.6867 43.8894 18.792C45.4574 16.8973 47.6951 15.4927 50.6024 14.578C53.5098 13.6307 56.9888 13.157 61.0394 13.157C65.0574 13.157 68.3731 13.647 70.9864 14.627C73.5998 15.5743 75.5271 17.0607 76.7684 19.086C78.0424 21.0787 78.6141 23.7083 78.4834 26.975H50.5534C50.7168 28.0203 51.1741 28.984 51.9254 29.866C52.7094 30.7153 53.8201 31.4013 55.2574 31.924C56.7274 32.4467 58.5894 32.708 60.8434 32.708C63.2281 32.708 65.2044 32.4303 66.7724 31.875C68.3404 31.3197 69.3204 30.5847 69.7124 29.67ZM60.6474 19.086C57.7728 19.086 55.5188 19.5433 53.8854 20.458C52.2521 21.34 51.2558 22.3527 50.8964 23.496H69.8104C69.6144 22.2547 68.7651 21.2093 67.2624 20.36C65.7924 19.5107 63.5874 19.086 60.6474 19.086ZM55.7474 8.551L63.9304 0.955998H75.7884L64.5184 8.551H55.7474ZM83.4887 3.994H92.4067V38H83.4887V3.994ZM108.208 2.23V8.649H98.4571V2.23H108.208ZM98.8491 13.794H107.767V38H98.8491V13.794ZM149.979 28.004C149.914 30.2253 149.212 32.1363 147.872 33.737C146.566 35.3377 144.606 36.5627 141.992 37.412C139.412 38.2287 136.161 38.637 132.241 38.637C128.256 38.637 124.81 38.196 121.902 37.314C118.995 36.432 116.741 35.06 115.14 33.198C113.572 31.3033 112.788 28.886 112.788 25.946C112.788 23.0387 113.572 20.6377 115.14 18.743C116.741 16.8483 118.995 15.4437 121.902 14.529C124.81 13.6143 128.256 13.157 132.241 13.157C136.161 13.157 139.395 13.5817 141.943 14.431C144.524 15.2803 146.468 16.489 147.774 18.057C149.114 19.625 149.832 21.5197 149.93 23.741H141.796C141.241 22.271 140.13 21.144 138.464 20.36C136.831 19.5433 134.757 19.135 132.241 19.135C130.216 19.135 128.419 19.38 126.851 19.87C125.283 20.3273 124.058 21.0623 123.176 22.075C122.294 23.055 121.853 24.3453 121.853 25.946C121.853 27.5467 122.278 28.8533 123.127 29.866C124.009 30.846 125.234 31.5647 126.802 32.022C128.403 32.4793 130.216 32.708 132.241 32.708C134.822 32.708 136.929 32.2997 138.562 31.483C140.228 30.6663 141.323 29.5067 141.845 28.004H149.979ZM164.29 2.23V8.649H154.539V2.23H164.29ZM154.931 13.794H163.849V38H154.931V13.794ZM168.233 13.794H191.802V19.87H168.233V13.794ZM175.534 6.836H184.452V38H175.534V6.836ZM209.907 38.588C206.967 38.588 204.321 38.0817 201.969 37.069C199.65 36.0237 197.804 34.5537 196.432 32.659C195.093 30.7643 194.423 28.5103 194.423 25.897C194.423 23.2183 195.093 20.9317 196.432 19.037C197.804 17.1423 199.666 15.6887 202.018 14.676C204.37 13.6633 207.065 13.157 210.103 13.157C213.435 13.157 216.212 13.7123 218.433 14.823C220.687 15.9337 222.386 17.4527 223.529 19.38C224.673 21.2747 225.244 23.447 225.244 25.897C225.244 27.563 224.918 29.1637 224.264 30.699C223.611 32.2017 222.647 33.5573 221.373 34.766C220.099 35.942 218.499 36.873 216.571 37.559C214.644 38.245 212.423 38.588 209.907 38.588ZM213.043 32.512C215.232 32.512 217.192 32.267 218.923 31.777C220.655 31.287 222.01 30.552 222.99 29.572C223.97 28.592 224.46 27.367 224.46 25.897C224.46 24.3617 223.954 23.1203 222.941 22.173C221.961 21.193 220.606 20.4743 218.874 20.017C217.176 19.5597 215.232 19.331 213.043 19.331C210.038 19.331 207.702 19.919 206.036 21.095C204.403 22.2383 203.586 23.839 203.586 25.897C203.586 27.269 203.962 28.445 204.713 29.425C205.497 30.405 206.592 31.1727 207.996 31.728C209.434 32.2507 211.116 32.512 213.043 32.512ZM224.46 13.794H233.378V38H225.048C225.048 38 224.999 37.657 224.901 36.971C224.803 36.285 224.705 35.354 224.607 34.178C224.509 32.9693 224.46 31.679 224.46 30.307V13.794ZM237.044 13.794H260.613V19.87H237.044V13.794ZM244.345 6.836H253.263V38H244.345V6.836ZM274.205 2.23V8.649H264.454V2.23H274.205ZM264.846 13.794H273.764V38H264.846V13.794ZM297.944 38.637C293.861 38.637 290.382 38.1797 287.507 37.265C284.665 36.3503 282.493 34.962 280.99 33.1C279.52 31.238 278.785 28.8533 278.785 25.946C278.785 23.0713 279.52 20.6867 280.99 18.792C282.493 16.8973 284.665 15.4927 287.507 14.578C290.382 13.6307 293.861 13.157 297.944 13.157C301.995 13.157 305.425 13.6307 308.234 14.578C311.076 15.4927 313.232 16.8973 314.702 18.792C316.205 20.6867 316.956 23.0713 316.956 25.946C316.956 28.8533 316.205 31.238 314.702 33.1C313.232 34.962 311.076 36.3503 308.234 37.265C305.425 38.1797 301.995 38.637 297.944 38.637ZM297.944 32.708C299.97 32.708 301.717 32.463 303.187 31.973C304.69 31.4503 305.85 30.6827 306.666 29.67C307.483 28.6573 307.891 27.416 307.891 25.946C307.891 24.5087 307.483 23.2673 306.666 22.222C305.882 21.1767 304.739 20.3927 303.236 19.87C301.766 19.3473 300.002 19.086 297.944 19.086C295.886 19.086 294.106 19.3473 292.603 19.87C291.101 20.3927 289.925 21.1767 289.075 22.222C288.259 23.2347 287.85 24.476 287.85 25.946C287.85 27.416 288.259 28.6573 289.075 29.67C289.892 30.6827 291.052 31.4503 292.554 31.973C294.057 32.463 295.854 32.708 297.944 32.708ZM321.297 13.794H330.215V38H321.297V13.794ZM344.474 13.157C346.173 13.157 347.774 13.3693 349.276 13.794C350.812 14.186 352.167 14.8393 353.343 15.754C354.519 16.636 355.434 17.812 356.087 19.282C356.773 20.7193 357.116 22.4997 357.116 24.623V38H348.247V25.946C348.247 23.692 347.676 22.075 346.532 21.095C345.422 20.0823 343.478 19.576 340.701 19.576C338.97 19.576 337.353 19.8537 335.85 20.409C334.348 20.9317 333.057 21.585 331.979 22.369C330.934 23.153 330.199 23.9533 329.774 24.77L329.725 22.565C329.856 21.683 330.248 20.703 330.901 19.625C331.587 18.547 332.535 17.518 333.743 16.538C334.985 15.558 336.487 14.7577 338.251 14.137C340.048 13.4837 342.122 13.157 344.474 13.157ZM361.621 29.67H369.804C370.229 30.65 371.045 31.4013 372.254 31.924C373.463 32.4467 375.112 32.708 377.203 32.708C378.738 32.708 379.898 32.61 380.682 32.414C381.466 32.1853 381.989 31.875 382.25 31.483C382.544 31.091 382.691 30.6663 382.691 30.209C382.691 29.5883 382.43 29.131 381.907 28.837C381.384 28.543 380.551 28.3307 379.408 28.2C378.265 28.0367 376.746 27.906 374.851 27.808C372.989 27.6773 371.274 27.4813 369.706 27.22C368.171 26.926 366.831 26.534 365.688 26.044C364.577 25.5213 363.695 24.8517 363.042 24.035C362.421 23.1857 362.111 22.1403 362.111 20.899C362.111 19.527 362.503 18.351 363.287 17.371C364.071 16.391 365.133 15.607 366.472 15.019C367.844 14.3983 369.428 13.941 371.225 13.647C373.054 13.3203 374.965 13.157 376.958 13.157C380.192 13.157 382.838 13.549 384.896 14.333C386.987 15.0843 388.538 16.1297 389.551 17.469C390.564 18.7757 391.054 20.2783 391.021 21.977H383.083C382.789 20.9317 382.201 20.1967 381.319 19.772C380.437 19.3473 378.983 19.135 376.958 19.135C375.031 19.135 373.61 19.3473 372.695 19.772C371.78 20.164 371.323 20.7683 371.323 21.585C371.323 22.173 371.568 22.6303 372.058 22.957C372.581 23.251 373.446 23.496 374.655 23.692C375.864 23.8553 377.497 24.0023 379.555 24.133C381.123 24.2637 382.642 24.4433 384.112 24.672C385.582 24.9007 386.905 25.26 388.081 25.75C389.257 26.2073 390.188 26.8607 390.874 27.71C391.56 28.5593 391.903 29.6863 391.903 31.091C391.903 32.7897 391.299 34.2107 390.09 35.354C388.914 36.4647 387.232 37.2977 385.043 37.853C382.854 38.3757 380.257 38.637 377.252 38.637C374.606 38.637 372.352 38.4247 370.49 38C368.628 37.5753 367.093 37.02 365.884 36.334C364.708 35.6153 363.793 34.8477 363.14 34.031C362.487 33.2143 362.046 32.4303 361.817 31.679C361.621 30.895 361.556 30.2253 361.621 29.67ZM397.602 4.876H406.814V28.053H397.602V4.876ZM407.108 31.581V38H397.357V31.581H407.108Z" fill="url(#paint0_linear_6507_6049)"/>
<defs>
<linearGradient id="paint0_linear_6507_6049" x1="18.189" y1="13.3163" x2="246.987" y2="199.89" gradientUnits="userSpaceOnUse">
<stop stop-color="#C43CAB"/>
<stop offset="1" stop-color="#F87E4B"/>
</linearGradient>
</defs>
</svg>
