<svg width="30" height="30" viewBox="0 0 30 30" fill="none" xmlns="http://www.w3.org/2000/svg">
<circle cx="15" cy="15" r="15" fill="white"/>
<g clip-path="url(#clip0_6471_6127)">
<path d="M21.8156 7H8.18125C7.52812 7 7 7.51563 7 8.15313V21.8438C7 22.4813 7.52812 23 8.18125 23H21.8156C22.4688 23 23 22.4813 23 21.8469V8.15313C23 7.51563 22.4688 7 21.8156 7ZM11.7469 20.6344H9.37188V12.9969H11.7469V20.6344ZM10.5594 11.9563C9.79688 11.9563 9.18125 11.3406 9.18125 10.5812C9.18125 9.82188 9.79688 9.20625 10.5594 9.20625C11.3188 9.20625 11.9344 9.82188 11.9344 10.5812C11.9344 11.3375 11.3188 11.9563 10.5594 11.9563ZM20.6344 20.6344H18.2625V16.9219C18.2625 16.0375 18.2469 14.8969 17.0281 14.8969C15.7937 14.8969 15.6062 15.8625 15.6062 16.8594V20.6344H13.2375V12.9969H15.5125V14.0406H15.5437C15.8594 13.4406 16.6344 12.8063 17.7875 12.8063C20.1906 12.8063 20.6344 14.3875 20.6344 16.4438V20.6344Z" fill="url(#paint0_linear_6471_6127)"/>
</g>
<defs>
<linearGradient id="paint0_linear_6471_6127" x1="7.8189" y1="11.7347" x2="22.4264" y2="13.0294" gradientUnits="userSpaceOnUse">
<stop stop-color="#C43CAB"/>
<stop offset="1" stop-color="#F87E4B"/>
</linearGradient>
<clipPath id="clip0_6471_6127">
<rect width="16" height="16" fill="white" transform="translate(7 7)"/>
</clipPath>
</defs>
</svg>
