<svg width="30" height="30" viewBox="0 0 30 30" fill="none" xmlns="http://www.w3.org/2000/svg">
<circle cx="15" cy="15" r="15" fill="white"/>
<g clip-path="url(#clip0_6471_6108)">
<path d="M11.6626 22.313C18.4534 22.313 22.1687 16.6856 22.1687 11.8069C22.1687 11.6487 22.1652 11.487 22.1582 11.3288C22.8809 10.8061 23.5046 10.1587 24 9.41702C23.3269 9.7165 22.6122 9.91209 21.8804 9.9971C22.651 9.53523 23.2279 8.80965 23.5043 7.95487C22.7794 8.38447 21.9867 8.68751 21.1601 8.85101C20.6031 8.25922 19.8667 7.86739 19.0648 7.73609C18.2628 7.60479 17.4399 7.74134 16.7233 8.12462C16.0067 8.50791 15.4363 9.11658 15.1004 9.85653C14.7644 10.5965 14.6816 11.4265 14.8646 12.2183C13.3969 12.1446 11.961 11.7633 10.65 11.0991C9.33902 10.4349 8.18227 9.50263 7.25473 8.36269C6.7833 9.17548 6.63904 10.1373 6.85127 11.0526C7.0635 11.968 7.6163 12.7681 8.3973 13.2905C7.81097 13.2719 7.23748 13.1141 6.72422 12.83V12.8757C6.72369 13.7287 7.01857 14.5555 7.55873 15.2156C8.09889 15.8758 8.85099 16.3285 9.68719 16.4968C9.14404 16.6454 8.57399 16.667 8.02113 16.5601C8.25709 17.2936 8.71618 17.9352 9.33433 18.3953C9.95248 18.8554 10.6988 19.111 11.4693 19.1265C10.1613 20.1539 8.54563 20.7111 6.88242 20.7085C6.58747 20.7081 6.2928 20.69 6 20.6544C7.68964 21.7384 9.65515 22.3141 11.6626 22.313Z" fill="url(#paint0_linear_6471_6108)"/>
</g>
<defs>
<linearGradient id="paint0_linear_6471_6108" x1="6.92126" y1="12.0155" x2="23.2891" y2="13.801" gradientUnits="userSpaceOnUse">
<stop stop-color="#C43CAB"/>
<stop offset="1" stop-color="#F87E4B"/>
</linearGradient>
<clipPath id="clip0_6471_6108">
<rect width="18" height="18" fill="white" transform="translate(6 6)"/>
</clipPath>
</defs>
</svg>
