<svg width="30" height="30" viewBox="0 0 30 30" fill="none" xmlns="http://www.w3.org/2000/svg">
<circle cx="15" cy="15" r="15" fill="white"/>
<g clip-path="url(#clip0_6471_6116)">
<path d="M15 8.44062C17.1375 8.44062 17.3906 8.45 18.2313 8.4875C19.0125 8.52187 19.4344 8.65313 19.7156 8.7625C20.0875 8.90625 20.3563 9.08125 20.6344 9.35938C20.9156 9.64062 21.0875 9.90625 21.2313 10.2781C21.3406 10.5594 21.4719 10.9844 21.5063 11.7625C21.5438 12.6062 21.5531 12.8594 21.5531 14.9938C21.5531 17.1313 21.5438 17.3844 21.5063 18.225C21.4719 19.0063 21.3406 19.4281 21.2313 19.7094C21.0875 20.0813 20.9125 20.35 20.6344 20.6281C20.3531 20.9094 20.0875 21.0813 19.7156 21.225C19.4344 21.3344 19.0094 21.4656 18.2313 21.5C17.3875 21.5375 17.1344 21.5469 15 21.5469C12.8625 21.5469 12.6094 21.5375 11.7688 21.5C10.9875 21.4656 10.5656 21.3344 10.2844 21.225C9.9125 21.0813 9.64375 20.9063 9.36563 20.6281C9.08438 20.3469 8.9125 20.0813 8.76875 19.7094C8.65938 19.4281 8.52813 19.0031 8.49375 18.225C8.45625 17.3813 8.44688 17.1281 8.44688 14.9938C8.44688 12.8563 8.45625 12.6031 8.49375 11.7625C8.52813 10.9812 8.65938 10.5594 8.76875 10.2781C8.9125 9.90625 9.0875 9.6375 9.36563 9.35938C9.64688 9.07812 9.9125 8.90625 10.2844 8.7625C10.5656 8.65313 10.9906 8.52187 11.7688 8.4875C12.6094 8.45 12.8625 8.44062 15 8.44062ZM15 7C12.8281 7 12.5563 7.00937 11.7031 7.04688C10.8531 7.08438 10.2688 7.22187 9.7625 7.41875C9.23438 7.625 8.7875 7.89688 8.34375 8.34375C7.89688 8.7875 7.625 9.23438 7.41875 9.75938C7.22187 10.2688 7.08438 10.85 7.04688 11.7C7.00938 12.5563 7 12.8281 7 15C7 17.1719 7.00938 17.4438 7.04688 18.2969C7.08438 19.1469 7.22187 19.7313 7.41875 20.2375C7.625 20.7656 7.89688 21.2125 8.34375 21.6562C8.7875 22.1 9.23438 22.375 9.75938 22.5781C10.2688 22.775 10.85 22.9125 11.7 22.95C12.5531 22.9875 12.825 22.9969 14.9969 22.9969C17.1688 22.9969 17.4406 22.9875 18.2938 22.95C19.1438 22.9125 19.7281 22.775 20.2344 22.5781C20.7594 22.375 21.2063 22.1 21.65 21.6562C22.0938 21.2125 22.3688 20.7656 22.5719 20.2406C22.7688 19.7313 22.9063 19.15 22.9438 18.3C22.9813 17.4469 22.9906 17.175 22.9906 15.0031C22.9906 12.8313 22.9813 12.5594 22.9438 11.7063C22.9063 10.8563 22.7688 10.2719 22.5719 9.76562C22.375 9.23438 22.1031 8.7875 21.6563 8.34375C21.2125 7.9 20.7656 7.625 20.2406 7.42188C19.7313 7.225 19.15 7.0875 18.3 7.05C17.4438 7.00938 17.1719 7 15 7Z" fill="url(#paint0_linear_6471_6116)"/>
<path d="M15 10.8906C12.7313 10.8906 10.8906 12.7313 10.8906 15C10.8906 17.2688 12.7313 19.1094 15 19.1094C17.2688 19.1094 19.1094 17.2688 19.1094 15C19.1094 12.7313 17.2688 10.8906 15 10.8906ZM15 17.6656C13.5281 17.6656 12.3344 16.4719 12.3344 15C12.3344 13.5281 13.5281 12.3344 15 12.3344C16.4719 12.3344 17.6656 13.5281 17.6656 15C17.6656 16.4719 16.4719 17.6656 15 17.6656Z" fill="url(#paint1_linear_6471_6116)"/>
<path d="M20.2313 10.7289C20.2313 11.2602 19.8 11.6883 19.2719 11.6883C18.7406 11.6883 18.3125 11.257 18.3125 10.7289C18.3125 10.1977 18.7438 9.76953 19.2719 9.76953C19.8 9.76953 20.2313 10.2008 20.2313 10.7289Z" fill="url(#paint2_linear_6471_6116)"/>
</g>
<defs>
<linearGradient id="paint0_linear_6471_6116" x1="7.81842" y1="11.7338" x2="22.4175" y2="13.0273" gradientUnits="userSpaceOnUse">
<stop stop-color="#C43CAB"/>
<stop offset="1" stop-color="#F87E4B"/>
</linearGradient>
<linearGradient id="paint1_linear_6471_6116" x1="11.3113" y1="13.3227" x2="18.8147" y2="13.9878" gradientUnits="userSpaceOnUse">
<stop stop-color="#C43CAB"/>
<stop offset="1" stop-color="#F87E4B"/>
</linearGradient>
<linearGradient id="paint2_linear_6471_6116" x1="18.4107" y1="10.3373" x2="20.1625" y2="10.4926" gradientUnits="userSpaceOnUse">
<stop stop-color="#C43CAB"/>
<stop offset="1" stop-color="#F87E4B"/>
</linearGradient>
<clipPath id="clip0_6471_6116">
<rect width="16" height="16" fill="white" transform="translate(7 7)"/>
</clipPath>
</defs>
</svg>
